<svg width="12" height="12" viewBox="0 0 12 12" fill="none" xmlns="http://www.w3.org/2000/svg">
<g id="mdi:password">
<path id="Vector" d="M5.835 8.26625C6.09292 8.26625 6.34028 8.16379 6.52266 7.98141C6.70504 7.79903 6.8075 7.55167 6.8075 7.29375C6.8075 7.03583 6.70504 6.78847 6.52266 6.60609C6.34028 6.42371 6.09292 6.32125 5.835 6.32125C5.57708 6.32125 5.32972 6.42371 5.14734 6.60609C4.96496 6.78847 4.8625 7.03583 4.8625 7.29375C4.8625 7.55167 4.96496 7.79903 5.14734 7.98141C5.32972 8.16379 5.57708 8.26625 5.835 8.26625ZM8.7525 3.89C9.01042 3.89 9.25778 3.99246 9.44016 4.17484C9.62254 4.35722 9.725 4.60458 9.725 4.8625V9.725C9.725 9.98292 9.62254 10.2303 9.44016 10.4127C9.25778 10.595 9.01042 10.6975 8.7525 10.6975H2.9175C2.65958 10.6975 2.41222 10.595 2.22984 10.4127C2.04746 10.2303 1.945 9.98292 1.945 9.725V4.8625C1.945 4.60458 2.04746 4.35722 2.22984 4.17484C2.41222 3.99246 2.65958 3.89 2.9175 3.89H3.40375V2.9175C3.40375 2.27269 3.6599 1.65429 4.11585 1.19835C4.57179 0.742399 5.19019 0.48625 5.835 0.48625C6.15428 0.48625 6.47043 0.549136 6.7654 0.671318C7.06037 0.7935 7.32839 0.972584 7.55415 1.19835C7.77992 1.42411 7.959 1.69213 8.08118 1.9871C8.20336 2.28207 8.26625 2.59822 8.26625 2.9175V3.89H8.7525ZM5.835 1.45875C5.44812 1.45875 5.07708 1.61244 4.80351 1.88601C4.52994 2.15958 4.37625 2.53062 4.37625 2.9175V3.89H7.29375V2.9175C7.29375 2.53062 7.14006 2.15958 6.86649 1.88601C6.59292 1.61244 6.22188 1.45875 5.835 1.45875Z" fill="#6B7180"/>
</g>
</svg>
